<mxfile host="app.diagrams.net" modified="2023-01-09T12:28:21.467Z" agent="5.0 (Windows NT 10.0; Win64; x64) AppleWebKit/537.36 (KHTML, like Gecko) Chrome/108.0.0.0 Safari/537.36" version="20.8.3" etag="NIGz2uYQ4T9XGZX4g6Wu" type="github">
  <diagram id="axwhvrQGpqvjr1ePNShw" name="PÃ¡gina-1">
    <mxGraphModel dx="880" dy="452" grid="1" gridSize="10" guides="1" tooltips="1" connect="1" arrows="1" fold="1" page="1" pageScale="1" pageWidth="827" pageHeight="1169" math="0" shadow="0">
      <root>
        <mxCell id="0" />
        <mxCell id="1" parent="0" />
        <mxCell id="OtnflTm-EGY1CMmcrK1X-1" value="Objetivo: Chupar uma bala" style="strokeWidth=2;html=1;shape=mxgraph.flowchart.annotation_1;align=left;pointerEvents=1;" vertex="1" parent="1">
          <mxGeometry x="20" y="10" width="50" height="100" as="geometry" />
        </mxCell>
        <mxCell id="OtnflTm-EGY1CMmcrK1X-8" style="edgeStyle=orthogonalEdgeStyle;rounded=0;orthogonalLoop=1;jettySize=auto;html=1;exitX=0.5;exitY=1;exitDx=0;exitDy=0;exitPerimeter=0;entryX=0.5;entryY=0;entryDx=0;entryDy=0;" edge="1" parent="1" source="OtnflTm-EGY1CMmcrK1X-2" target="OtnflTm-EGY1CMmcrK1X-4">
          <mxGeometry relative="1" as="geometry" />
        </mxCell>
        <mxCell id="OtnflTm-EGY1CMmcrK1X-2" value="INICIO" style="strokeWidth=2;html=1;shape=mxgraph.flowchart.terminator;whiteSpace=wrap;fillColor=#dae8fc;strokeColor=#6c8ebf;" vertex="1" parent="1">
          <mxGeometry x="380" y="62" width="100" height="60" as="geometry" />
        </mxCell>
        <mxCell id="OtnflTm-EGY1CMmcrK1X-3" value="FIM" style="strokeWidth=2;html=1;shape=mxgraph.flowchart.terminator;whiteSpace=wrap;fillColor=#dae8fc;strokeColor=#6c8ebf;" vertex="1" parent="1">
          <mxGeometry x="380" y="430" width="100" height="60" as="geometry" />
        </mxCell>
        <mxCell id="OtnflTm-EGY1CMmcrK1X-9" style="edgeStyle=orthogonalEdgeStyle;rounded=0;orthogonalLoop=1;jettySize=auto;html=1;entryX=0.5;entryY=0;entryDx=0;entryDy=0;" edge="1" parent="1" source="OtnflTm-EGY1CMmcrK1X-4" target="OtnflTm-EGY1CMmcrK1X-5">
          <mxGeometry relative="1" as="geometry" />
        </mxCell>
        <mxCell id="OtnflTm-EGY1CMmcrK1X-4" value="PEGAR A BALA" style="rounded=1;whiteSpace=wrap;html=1;absoluteArcSize=1;arcSize=14;strokeWidth=2;fillColor=#d5e8d4;strokeColor=#82b366;" vertex="1" parent="1">
          <mxGeometry x="380" y="150" width="100" height="40" as="geometry" />
        </mxCell>
        <mxCell id="OtnflTm-EGY1CMmcrK1X-10" style="edgeStyle=orthogonalEdgeStyle;rounded=0;orthogonalLoop=1;jettySize=auto;html=1;entryX=0.5;entryY=0;entryDx=0;entryDy=0;" edge="1" parent="1" source="OtnflTm-EGY1CMmcrK1X-5" target="OtnflTm-EGY1CMmcrK1X-6">
          <mxGeometry relative="1" as="geometry" />
        </mxCell>
        <mxCell id="OtnflTm-EGY1CMmcrK1X-5" value="REMOVER A EMBALAGEM" style="rounded=1;whiteSpace=wrap;html=1;absoluteArcSize=1;arcSize=14;strokeWidth=2;fillColor=#d5e8d4;strokeColor=#82b366;" vertex="1" parent="1">
          <mxGeometry x="380" y="220" width="100" height="40" as="geometry" />
        </mxCell>
        <mxCell id="OtnflTm-EGY1CMmcrK1X-11" style="edgeStyle=orthogonalEdgeStyle;rounded=0;orthogonalLoop=1;jettySize=auto;html=1;exitX=0.5;exitY=1;exitDx=0;exitDy=0;entryX=0.5;entryY=0;entryDx=0;entryDy=0;" edge="1" parent="1" source="OtnflTm-EGY1CMmcrK1X-6" target="OtnflTm-EGY1CMmcrK1X-7">
          <mxGeometry relative="1" as="geometry" />
        </mxCell>
        <mxCell id="OtnflTm-EGY1CMmcrK1X-6" value="COLOCAR A BALA NA BOCA" style="rounded=1;whiteSpace=wrap;html=1;absoluteArcSize=1;arcSize=14;strokeWidth=2;fillColor=#d5e8d4;strokeColor=#82b366;" vertex="1" parent="1">
          <mxGeometry x="380" y="290" width="100" height="40" as="geometry" />
        </mxCell>
        <mxCell id="OtnflTm-EGY1CMmcrK1X-12" style="edgeStyle=orthogonalEdgeStyle;rounded=0;orthogonalLoop=1;jettySize=auto;html=1;exitX=0.5;exitY=1;exitDx=0;exitDy=0;entryX=0.5;entryY=0;entryDx=0;entryDy=0;entryPerimeter=0;" edge="1" parent="1" source="OtnflTm-EGY1CMmcrK1X-7" target="OtnflTm-EGY1CMmcrK1X-3">
          <mxGeometry relative="1" as="geometry" />
        </mxCell>
        <mxCell id="OtnflTm-EGY1CMmcrK1X-7" value="JOGAR A EMBALAGEM NO LIXO" style="rounded=1;whiteSpace=wrap;html=1;absoluteArcSize=1;arcSize=14;strokeWidth=2;fillColor=#d5e8d4;strokeColor=#82b366;" vertex="1" parent="1">
          <mxGeometry x="380" y="360" width="100" height="40" as="geometry" />
        </mxCell>
      </root>
    </mxGraphModel>
  </diagram>
</mxfile>
